<svg width="100%" height="100%" viewBox="0 0 6250 6250" version="1.1" xmlns="http://www.w3.org/2000/svg" xmlns:xlink="http://www.w3.org/1999/xlink" xml:space="preserve" xmlns:serif="http://www.serif.com/" style="fill-rule:evenodd;clip-rule:evenodd;stroke-linejoin:round;stroke-miterlimit:2;">
    <g transform="matrix(4.16667,0,0,4.16667,9.53674e-05,-6.75519e-05)">
        <path d="M760.931,31.733C760.931,31.733 690.299,179.137 543.316,225.797C599.699,260.753 694.33,385.223 700.94,545.885C574.332,547.867 483.285,448.897 431.983,402.871C411.186,475.544 357.776,566.551 241.253,611.55C322.941,648.356 398.503,725.06 429.748,818.127C486.874,767.152 607.265,670.923 703.895,673.731C718.635,967.58 651.981,1188.5 529.239,1269.6C567.605,1288.62 694.164,1342.47 747.375,1468.27C782.917,1386.76 871.095,1306.27 974.399,1265.22C896.543,1222.36 794.231,1098.05 803.19,674.574C901.393,676.651 992.427,744.369 1074.12,819.173C1103.01,696.778 1258.75,613.926 1258.75,613.926C1258.75,613.926 1119.68,560.302 1077.5,404.094C1014.17,464.734 923.585,545.616 810.002,548.094C824.331,384.012 896.465,292.183 966.706,226.656C889.176,193.783 820.609,153.66 760.931,31.733Z" style="fill:rgb(123,29,48);"/>
        <path d="M760.931,31.733C820.609,153.66 889.176,193.783 966.706,226.656C896.465,292.183 824.331,384.012 810.002,548.094C923.585,545.616 1014.17,464.734 1077.5,404.094C1119.68,560.302 1258.75,613.926 1258.75,613.926C1258.75,613.926 1103.01,696.778 1074.12,819.173C992.427,744.369 901.393,676.651 803.19,674.574C794.231,1098.05 896.543,1222.36 974.399,1265.22C871.095,1306.27 782.917,1386.76 747.375,1468.27C694.164,1342.47 567.605,1288.62 529.239,1269.6C651.981,1188.5 718.635,967.58 703.895,673.731C607.265,670.923 486.874,767.152 429.748,818.127C398.503,725.06 322.941,648.356 241.253,611.55C357.776,566.551 411.186,475.544 431.983,402.871C483.285,448.897 574.332,547.867 700.94,545.885C694.33,385.223 599.699,260.753 543.316,225.797C690.299,179.137 760.931,31.733 760.931,31.733ZM760.37,63.131C734.611,105.02 673.164,188.971 574.142,230.375C632.557,281.359 709.834,398.64 715.866,545.271C716.032,549.296 714.565,553.216 711.799,556.144C709.033,559.072 705.201,560.759 701.174,560.822C583.063,562.671 494.299,480.696 439.024,429.583C415.529,494.416 367.066,567.743 276.105,612.581C343.872,651.282 404.383,715.744 436.167,792.678C471.477,762.452 521.846,723.393 575.166,695.434C618.278,672.828 663.372,657.608 704.329,658.798C712.118,659.025 718.425,665.2 718.815,672.983C727.789,851.878 706.777,1004.1 661.834,1115.05C635.189,1180.84 600.03,1232.33 557.889,1266.97C606.605,1291.15 696.479,1341.08 747.677,1434.63C786.719,1366.79 858.518,1302.32 942.826,1262.64C867.146,1206.4 779.984,1065.17 788.254,674.258C788.429,666.009 795.257,659.464 803.506,659.638C898.078,661.639 986.686,721.631 1066.64,792.345C1082.11,750.351 1110.67,713.373 1141.11,683.405C1172.49,652.509 1205.7,629.108 1227.45,615.223C1186.37,592.442 1107.2,536.765 1070.33,431.42C1005.9,491.287 917.852,560.684 810.328,563.029C806.084,563.122 802.001,561.405 799.099,558.307C796.197,555.209 794.75,551.023 795.12,546.794C808.773,390.45 873.382,297.798 940.262,231.364C873.68,200.975 813.732,160.45 760.37,63.131Z"/>
    </g>
</svg>
